<?xml version="1.0" encoding="utf-8"?>
<!-- Generator: Adobe Illustrator 27.1.1, SVG Export Plug-In . SVG Version: 6.00 Build 0)  -->
<svg version="1.1" id="Layer_1" xmlns="http://www.w3.org/2000/svg" xmlns:xlink="http://www.w3.org/1999/xlink" x="0px" y="0px"
	 viewBox="0 0 1417.3 1417.3" style="enable-background:new 0 0 1417.3 1417.3;" xml:space="preserve">
<style type="text/css">
	.st0{fill:#7ABCD3;}
	.st1{clip-path:url(#SVGID_00000168082818256628656000000014747103769061952440_);fill:#008551;}
	.st2{fill:#383D4F;}
	.st3{fill:#EC669F;}
	.st4{fill:#039566;}
</style>
<g>
	<path class="st0" d="M443.8,363.5c-33.1,18.9-84.8,49.2-125.6,110.1c-38.9,58.1-47.8,113.9-55.2,161.3
		c-6.6,41.5-18.3,121.3,9.3,218.5c33.5,118.3,105.3,191.8,137.9,221.5c35.1,31.9,129.9,115.4,277.8,122.5
		c28.1,1.4,166.6,5.1,287.6-95.3c101.4-84.2,129.8-191.1,145.2-249.5c16.1-60.7,46.9-177.1-6.5-304.4
		c-68.8-163.8-225.9-223.6-264.5-236.8C653.1,244,485.3,339.8,443.8,363.5"/>
	<path class="st0" d="M443.8,363.5c-33.1,18.9-84.8,49.2-125.6,110.1c-38.9,58.1-47.8,113.9-55.2,161.3
		c-9.2,58.6-11.2,118.7-0.4,177.1c2.3,12.4,4.7,24.7,6.7,37.2c0.2,1.1,0.4,2.2,1.1,3.1c0.6,0.7,1.6,1.1,2.5,1.4
		c5.5,1.7,11.3,1.7,17.1,1.7c27.6-0.3,55.1-4.2,82.7-3.5c10.8,0.3,22-1.6,33-2.1c12.3-0.6,24.6-1.4,37-2.3
		c24.9-1.8,49.8-4.2,74.7-6.9c116-12.9,230.6-35.2,345.1-57.6c60.5-11.8,118.7-25.9,176-48.9c21.3-8.5,42.2-17.8,62.8-27.9
		c10-4.9,19.9-10,29.8-15.2c10.1-5.4,13.1-6.1,12.3-18c-0.8-11.6-2-23.2-3.8-34.7c-3.5-23-9-45.8-16.6-67.8
		c-2.6-7.5-5.5-15-8.5-22.4c-68.8-163.8-225.9-223.6-264.5-236.8C653.1,244,485.3,339.8,443.8,363.5"/>
</g>
<g>
	<defs>
		<path id="SVGID_1_" d="M443.8,363.5c-33.1,18.9-84.8,49.2-125.6,110.1c-4.9,7.3-9.3,14.5-13.2,21.7c-4,7.2-7.6,14.3-10.8,21.4
			c-1.6,3.5-3.1,7.1-4.5,10.6c-15.8,38.6-21.5,75.1-26.7,107.7c-5.1,32-13.1,86.9-3.9,154.9c0,0.2,0.1,0.5,0.1,0.7
			c0.8,5.7,1.7,11.5,2.7,17.3c0.2,1.4,0.4,2.8,0.6,4.2c2.3,12.4,4.8,24.7,6.7,37.2c0.2,1.1,0.4,2.2,1.1,3.1c0.5,0.6,1.3,0.9,2,1.2
			c33.6,118.2,105.2,191.7,137.9,221.4c33.3,30.3,120.4,107,255.5,120.8h81.2c58.3-5.8,147.4-26.2,228.6-93.7
			c101.4-84.2,129.7-191.1,145.2-249.5c15.6-58.9,45.1-170.3-2-293.2c-1.4-3.8-2.9-7.5-4.5-11.2
			c-68.8-163.8-225.9-223.6-264.5-236.8c-49.6-17-97.4-23.6-141.8-23.6C576.4,287.7,474.8,345.8,443.8,363.5"/>
	</defs>
	<clipPath id="SVGID_00000116939100992044677730000012123252672967628960_">
		<use xlink:href="#SVGID_1_"  style="overflow:visible;"/>
	</clipPath>
	<path style="clip-path:url(#SVGID_00000116939100992044677730000012123252672967628960_);fill:#008551;" d="M426.8,359.5
		c19.6,28.2,23.2,66.8,9.2,98.1c-4.9,10.9-11.7,21-15.6,32.3c-5.4,16-4.6,33.3-3.7,50.2c1.7,31.3,3.4,62.5,5.1,93.8
		c0.8,15.5,1.5,31.8-5.7,45.6c-8.9,17.1-27.8,26.3-46.2,32c-18.4,5.7-37.9,9.4-53.8,20.1c-36.2,24.4-42.5,76.2-73.6,106.9
		c-23.7-19.9-32.5-51.9-39.4-82.1c-14.2-61.9-25.7-125-24.8-188.6c0.9-63.6,14.7-128,47.9-182.2c33.2-54.2,87.3-97.1,149.7-109
		c5.1-1,10.4-1.7,15.4-0.1c10.1,3.3,14.7,14.8,17.9,25c7.1,22.3,14.1,44.7,21.2,67"/>
	<path style="clip-path:url(#SVGID_00000116939100992044677730000012123252672967628960_);fill:#008551;" d="M592.1,265.5
		c-5,32.2,19.6,66,51.7,71.2c9.9,1.6,20.2,0.8,29.6,4.4c33.7,12.9,31,69.2,64.2,83.5c19.3,8.3,41.3-2.2,58.5-14.3
		c17.2-12.1,34.8-26.6,55.7-27c13.1-0.3,25.6,5.1,37.2,11.2c44,23.2,81.4,58.9,106.6,101.8c2.8,4.8,5.7,9.9,10.4,12.8
		c4.2,2.6,9.3,3,14.3,3.4c11.4,0.9,22.9,1.9,34.3,2.8c9.1,0.7,18.7,1.4,26.7-3c10.7-5.8,15.2-18.6,18.1-30.4
		c7.1-28.8,9.9-59.3,3-88.2c-8.9-37.4-33.7-69.7-64.3-93c-30.5-23.3-66.6-38.4-103.3-49.8c-113.4-35.3-241.1-36.8-347.4,16.3"/>
	<path style="clip-path:url(#SVGID_00000116939100992044677730000012123252672967628960_);fill:#008551;" d="M492.5,1203
		c29.7-27.1,61.5-55.3,100.9-62.7c18.2-3.5,38.2-2.6,53.5-13.1c11.1-7.6,18.1-20.4,29.7-27.4c10.4-6.2,23.1-6.9,35.2-7.4
		c42-1.6,84.1-2.2,126.1-1.9c15.5,0.1,31.3,0.4,45.8,5.8c27.3,10.1,46.4,37,74.4,44.8c13.7,3.8,32.2,5.7,35.2,19.6
		c1.1,5.2-0.6,10.7-2.8,15.6c-11.7,26.3-35.3,45.9-61.4,58s-54.7,17.5-83.1,21.8c-62.7,9.6-126.7,14.6-189.5,5.5
		c-62.8-9.2-124.6-33.4-171-76.6"/>
	<path style="clip-path:url(#SVGID_00000116939100992044677730000012123252672967628960_);fill:#008551;" d="M1177.2,703.1
		c-21.3,0-42.7-0.1-64-0.1c-6.1,0-12.3,0-18.2,1.8c-9.5,2.9-17.2,10.1-23.5,17.8c-15.8,19.1-26.4,42.5-44.9,59.1
		c-13.8,12.3-31.3,20.2-43.5,34.1c-17.9,20.6-20.5,50-22.2,77.2c-0.4,6.8-0.3,14.9,5.2,18.9c2.8,2.1,6.4,2.6,9.9,2.9
		c34.4,3.2,68.7-4.9,102.3-13c14.6-3.5,29.5-7.1,42.2-15.3c13-8.4,22.7-21,30.9-34.2c28.6-46.1,41-102.1,34.4-156"/>
	<path style="clip-path:url(#SVGID_00000116939100992044677730000012123252672967628960_);fill:#008551;" d="M256,913.6
		c35.4,9.7,72.9,7.4,109.6,8.5c36.8,1.2,75.4,6.7,104.4,29.3c8.8,6.8,16.8,15.8,18.5,26.8c3.3,21-16.9,38-36.2,47
		c-52.4,24.3-115.7,23.7-167.7-1.3c-6.7-3.2-13.3-6.9-17.9-12.8c-3.2-4.1-5.2-9.1-7.1-14c-10.8-27.5-21.2-60.3-4.8-84.9"/>
</g>
<g>
	<path class="st2" d="M828.8,674c3.6,15.4-5.9,30.8-21.3,34.4c-15.4,3.6-30.8-5.9-34.4-21.3c-3.6-15.4,5.9-30.8,21.2-34.4
		C809.7,649.1,825.1,658.6,828.8,674"/>
	<path class="st2" d="M605.4,712.8c3.6,15.4-5.9,30.8-21.3,34.4c-15.4,3.6-30.8-5.9-34.4-21.3c-3.6-15.4,5.9-30.8,21.2-34.4
		C586.3,687.9,601.7,697.4,605.4,712.8"/>
	<path class="st3" d="M507.9,803.4c3.9,16.5-6.3,33-22.8,36.9c-16.5,3.9-33-6.3-36.9-22.8c-3.9-16.5,6.3-33,22.8-36.9
		S504,787,507.9,803.4"/>
	<path class="st3" d="M938,714.3c3.9,16.5-6.3,33-22.8,36.9c-16.5,3.9-33-6.3-36.9-22.8c-3.9-16.5,6.3-33,22.8-36.9
		C917.6,687.6,934.1,697.8,938,714.3"/>
	<path class="st2" d="M701.8,854.8c-20.8-0.4-38.8-16-46.4-32.7c-0.8-1.8,0-3.9,1.8-4.8c1.8-0.8,3.9,0,4.8,1.8
		c7.7,17.1,27.8,32.1,48.4,27.7c27.1-5.8,38.6-21.6,36.2-49.8c-0.2-2,1.3-3.7,3.3-3.9c2,0.3,3.7,1.3,3.9,3.3
		c2.7,31.6-11.4,50.9-41.9,57.4C708.5,854.5,705.1,854.9,701.8,854.8"/>
	<path class="st4" d="M398,442.5c10.3,0,10.3-16,0-16C387.7,426.5,387.7,442.5,398,442.5"/>
	<path class="st4" d="M339.3,510.1c10.3,0,10.3-16,0-16C329,494.1,329,510.1,339.3,510.1"/>
	<path class="st4" d="M385.6,559.9c10.3,0,10.3-16,0-16C375.3,543.9,375.3,559.9,385.6,559.9"/>
	<path class="st4" d="M303.8,629.3c10.3,0,10.3-16,0-16C293.5,613.3,293.4,629.3,303.8,629.3"/>
	<path class="st4" d="M380.3,664.8c10.3,0,10.3-16,0-16C369.9,648.8,369.9,664.8,380.3,664.8"/>
	<path class="st4" d="M270,721.8c10.3,0,10.3-16,0-16C259.7,705.8,259.6,721.8,270,721.8"/>
	<path class="st4" d="M661.3,316.2c10.3,0,10.3-16,0-16C651,300.2,651,316.2,661.3,316.2"/>
	<path class="st4" d="M739.6,376.7c10.3,0,10.3-16,0-16C729.3,360.7,729.2,376.7,739.6,376.7"/>
	<path class="st4" d="M780.5,328.7c10.3,0,10.3-16,0-16C770.2,312.6,770.2,328.7,780.5,328.7"/>
	<path class="st4" d="M874.7,364.2c10.3,0,10.3-16,0-16C864.4,348.2,864.4,364.2,874.7,364.2"/>
	<path class="st4" d="M969,426.5c10.3,0,10.3-16,0-16C958.7,410.5,958.7,426.5,969,426.5"/>
	<path class="st4" d="M1036.6,479.8c10.3,0,10.3-16,0-16C1026.3,463.8,1026.3,479.8,1036.6,479.8"/>
	<path class="st4" d="M1114.9,741.3c10.3,0,10.3-16,0-16C1104.6,725.3,1104.6,741.3,1114.9,741.3"/>
	<path class="st4" d="M1038.4,819.6c10.3,0,10.3-16,0-16C1028.1,803.6,1028.1,819.6,1038.4,819.6"/>
	<path class="st4" d="M1084.6,867.6c10.3,0,10.3-16,0-16C1074.3,851.6,1074.3,867.6,1084.6,867.6"/>
	<path class="st4" d="M990.4,892.5c10.3,0,10.3-16,0-16C980.1,876.5,980,892.5,990.4,892.5"/>
	<path class="st4" d="M344.7,961.9c10.3,0,10.3-16,0-16C334.4,945.9,334.4,961.9,344.7,961.9"/>
	<path class="st4" d="M426.5,974.3c10.3,0,10.3-16,0-16C416.2,958.3,416.2,974.3,426.5,974.3"/>
	<path class="st4" d="M389.1,1017c10.3,0,10.3-16,0-16C378.8,1001,378.8,1017,389.1,1017"/>
	<path class="st4" d="M609.7,1175.3c10.3,0,10.3-16,0-16C599.4,1159.3,599.4,1175.3,609.7,1175.3"/>
	<path class="st4" d="M691.5,1138c10.3,0,10.3-16,0-16C681.2,1122,681.2,1138,691.5,1138"/>
	<path class="st4" d="M741.3,1171.8c10.3,0,10.3-16,0-16C731,1155.8,731,1171.8,741.3,1171.8"/>
	<path class="st4" d="M805.4,1132.7c10.3,0,10.3-16,0-16C795.1,1116.6,795.1,1132.7,805.4,1132.7"/>
	<path class="st4" d="M876.5,1141.5c10.3,0,10.3-16,0-16C866.2,1125.5,866.2,1141.5,876.5,1141.5"/>
	<path class="st0" d="M227.9,826.5c-1.7,0.3-4.7-0.2-7.6-0.6c-4.6-0.7-9.9-1.5-15.7-0.6c-2.7,0.4-5.8,0.1-9.4-0.4
		c-3.5-0.4-7.5-0.9-11.9-0.7c-4.2,0.2-8.3,0.5-12.4,0.8c-9.7,0.8-18.4,1.5-26.5-0.1c-0.1-1.2-0.3-2.4-0.5-3.6
		c-0.3-2.3-1-4.6-1.8-6.8c-1.3-3.7-3-7-5.2-10.2c-1-1.5-2-2.9-3.1-4.3c-1.2-1.7-2.4-3.6-3.9-5c-1.9-1.7-5.3-3.5-7.9-3.5
		c-0.9,0-1.8,0.2-2.6,0.6c-1,0.3-2,0.6-3,0.9c-1.2,0.5-2.4,1.4-3.5,2.2c-1.7,1.3-3.7,3.6-3.3,5.9c0.2,1.4,0.7,2.9,1.2,4.2
		c0.4,1.2,0.8,2.3,1.3,3.5c0.3,0.8,0.7,1.4,1.2,2.1c0.4,0.5,0.6,0.7-0.1,1c-0.5,0.2-1.8-0.1-2.3-0.1c-1.3-0.1-2.6-0.3-3.9-0.3
		c-6,0.2-11.9,3.9-14.4,9.4c-1.2,2.6-1.2,4.8-0.7,7.6c0.3,1.7,1.1,3.9,3,4.3c2.5,0.6,4.8,0.2,7.4,0c1.7-0.1,4.2,0.2,5.7-0.7
		c-3,1.1-5.8,2.5-8.6,4c-2.3,1.2-4.8,2.5-6.8,4.4c-3.5,3.4-4.6,8.9-2.4,13.2c0.7,1.5,2,2.9,3.6,3.5c2,0.8,4.1,0.3,6.1,0
		c2.8-0.5,5.4-1.3,8.1-2.1c2.6-0.7,5.2-1.3,7.7-2.2c4.1-1.5,8.3-2.9,12.4-4.5c0.4-0.2,0.8-0.4,1.2-0.5c15.3,5.6,29.7,4.5,43.7,3.4
		c3.7-0.3,7.5-0.6,11.4-0.8c2.3-0.1,4.9,0.2,7.7,0.5c4.8,0.6,10.3,1.2,16.5,0.2c1.7-0.3,4.7,0.2,7.6,0.6c4.6,0.7,9.8,1.5,15.6,0.6
		l54.6-8.4l-4-26L227.9,826.5z"/>
	<path class="st0" d="M1164.8,632.4c1.7-0.3,4.4-1.7,7-3c4.2-2.2,8.9-4.6,14.6-5.7c2.7-0.5,5.5-1.8,8.8-3.4c3.2-1.5,6.8-3.3,11-4.5
		c4-1.2,8-2.2,12-3.2c9.4-2.4,17.9-4.6,25-8.7c-0.2-1.2-0.5-2.4-0.7-3.5c-0.4-2.2-0.5-4.7-0.5-7c0-3.9,0.6-7.6,1.6-11.4
		c0.4-1.7,1-3.4,1.6-5c0.6-2,1.1-4.1,2.1-5.9c1.2-2.2,3.9-5,6.4-5.9c0.9-0.3,1.7-0.4,2.6-0.3c1,0,2.1-0.1,3.1-0.1
		c1.4,0.1,2.8,0.5,4,0.9c2.1,0.7,4.6,2.2,5.1,4.5c0.2,1.4,0.3,3,0.3,4.4c0,1.2,0,2.5-0.1,3.7c0,0.9-0.2,1.6-0.5,2.4
		c-0.2,0.6-0.4,0.8,0.4,0.9c0.5,0,1.7-0.7,2.1-0.9c1.2-0.5,2.3-1.1,3.6-1.5c5.7-1.8,12.5-0.1,16.7,4.2c2,2.1,2.8,4.2,3.2,7
		c0.3,1.7,0.2,4-1.5,5.1c-2.2,1.3-4.5,1.7-7,2.4c-1.6,0.4-3.9,1.5-5.6,1.1c3.2,0,6.3,0.5,9.4,1c2.6,0.4,5.4,0.8,7.8,1.9
		c4.4,2.1,7.2,6.9,6.5,11.7c-0.2,1.6-0.9,3.4-2.2,4.5c-1.6,1.4-3.8,1.7-5.8,2c-2.8,0.5-5.6,0.5-8.4,0.7c-2.7,0.2-5.4,0.5-8.1,0.4
		c-4.4-0.1-8.8,0-13.2-0.3c-0.4,0-0.9-0.1-1.3-0.1c-12.6,10.2-26.7,13.9-40.3,17.3c-3.6,0.9-7.3,1.8-11,2.9c-2.2,0.7-4.6,1.8-7.2,3
		c-4.4,2.1-9.4,4.5-15.6,5.5c-1.7,0.3-4.4,1.7-7,3c-4.1,2.2-8.8,4.6-14.5,5.6l-54.4,9.7l-4.6-25.9L1164.8,632.4z"/>
</g>
</svg>
