<?xml version="1.0" encoding="utf-8"?>
<!-- Generator: Adobe Illustrator 27.1.1, SVG Export Plug-In . SVG Version: 6.00 Build 0)  -->
<svg version="1.1" id="Layer_1" xmlns="http://www.w3.org/2000/svg" xmlns:xlink="http://www.w3.org/1999/xlink" x="0px" y="0px"
	 viewBox="0 0 1417.3 1417.3" style="enable-background:new 0 0 1417.3 1417.3;" xml:space="preserve">
<style type="text/css">
	.st0{fill:#494D5C;}
	.st1{fill:#B1DCDE;}
	.st2{fill:#EFBE42;}
	.st3{fill:#664D45;}
</style>
<g>
	<path class="st0" d="M464.7,951.2c-1.2,0-2.5-0.3-3.7-0.8c-7.3-3.2-14.5-6.7-21.5-10.5c-4.6-2.5-6.2-8.2-3.8-12.7
		c2.5-4.5,8.2-6.2,12.7-3.8c6.4,3.5,13.2,6.8,20,9.7c4.8,2.1,6.9,7.6,4.9,12.4C471.8,949.1,468.4,951.2,464.7,951.2"/>
	<path class="st0" d="M986.1,491c-2.9,0-5.8-1.3-7.6-3.9c-3.1-4.2-2.1-10.1,2.1-13.1c15.5-11.3,31.8-17.5,47-17.9
		c5.1-0.3,9.5,3.9,9.6,9.1c0.1,5.2-4,9.5-9.1,9.6c-11.4,0.3-24,5.3-36.5,14.3C989.9,490.4,988,491,986.1,491 M1082.6,536.9
		c-4.4,0-8.4-3.2-9.2-7.7c-0.5-2.9-1.1-5.7-1.8-8.5c-3-12.2-7.3-22.2-12.7-29.7c-3-4.2-2.1-10.1,2.1-13.1c4.2-3.1,10.1-2.1,13.1,2.1
		c6.8,9.4,12.1,21.6,15.7,36.2c0.8,3.2,1.5,6.4,2.1,9.6c0.9,5.1-2.4,10-7.5,10.9C1083.8,536.8,1083.2,536.9,1082.6,536.9
		 M1077.6,626.8c-0.8,0-1.5-0.1-2.3-0.3c-5-1.3-8.1-6.4-6.8-11.4c3.8-14.9,6.2-29.4,7.1-43.1c0.3-5.2,4.8-9.1,10-8.7
		c5.2,0.4,9.1,4.8,8.7,10c-1,14.8-3.6,30.4-7.6,46.4C1085.6,624,1081.8,626.8,1077.6,626.8 M1044.3,711.1c-1.5,0-3-0.4-4.4-1.1
		c-4.6-2.4-6.3-8.1-3.9-12.7c7.1-13.5,13.4-27.1,18.7-40.3c1.9-4.8,7.4-7.2,12.2-5.2c4.8,1.9,7.2,7.4,5.2,12.2
		c-5.5,13.8-12.1,28-19.5,42.1C1050.9,709.3,1047.7,711.1,1044.3,711.1 M995.1,787.4c-2,0-4-0.6-5.7-2c-4.1-3.2-4.9-9.1-1.7-13.2
		c9-11.7,17.7-23.9,25.8-36.4c2.8-4.4,8.6-5.6,13-2.8c4.4,2.8,5.6,8.6,2.8,13c-8.4,12.9-17.3,25.6-26.7,37.7
		C1000.7,786.1,997.9,787.4,995.1,787.4 M932.4,852.9c-2.7,0-5.4-1.2-7.2-3.4c-3.3-4-2.8-9.9,1.2-13.2c11.7-9.8,22.7-19.9,32.4-30.2
		c3.6-3.8,9.5-3.9,13.3-0.3c3.8,3.6,3.9,9.5,0.3,13.3c-10.3,10.8-21.7,21.4-34,31.7C936.7,852.2,934.5,852.9,932.4,852.9 M857.5,904
		c-3.3,0-6.5-1.7-8.2-4.8c-2.5-4.5-0.9-10.2,3.6-12.8c13.1-7.4,25.9-15.3,37.9-23.5c4.3-2.9,10.1-1.8,13,2.5
		c2.9,4.3,1.8,10.1-2.5,13c-12.5,8.5-25.7,16.7-39.3,24.3C860.6,903.6,859,904,857.5,904 M775.1,942.1c-3.8,0-7.4-2.3-8.8-6.1
		c-1.8-4.9,0.7-10.3,5.5-12.1c14-5.2,27.8-11,41.3-17.2c4.7-2.2,10.3-0.1,12.5,4.6c2.2,4.7,0.1,10.3-4.6,12.5
		c-13.9,6.4-28.2,12.4-42.6,17.8C777.3,941.9,776.2,942.1,775.1,942.1 M687.8,967c-4.4,0-8.3-3.1-9.2-7.6c-1-5.1,2.3-10,7.4-11
		c14.4-2.9,29-6.4,43.4-10.5c5-1.4,10.2,1.5,11.6,6.4c1.4,5-1.5,10.2-6.5,11.6c-14.9,4.3-30,7.9-44.9,10.9
		C689,966.9,688.4,967,687.8,967 M552.3,974c-0.4,0-0.7,0-1.1-0.1c-15.8-1.8-31.2-4.6-45.9-8.4c-5-1.3-8.1-6.4-6.8-11.4
		c1.3-5,6.4-8.1,11.4-6.8c13.8,3.5,28.4,6.2,43.4,7.9c5.2,0.6,8.9,5.2,8.3,10.4C561.1,970.4,557,974,552.3,974 M597.6,976.4
		c-5.2,0-9.4-4.2-9.4-9.4c0-5.2,4.2-9.4,9.4-9.4c14.4-0.1,29.4-0.9,44.4-2.5c5.1-0.6,9.8,3.2,10.3,8.3c0.5,5.2-3.2,9.8-8.4,10.3
		C628.3,975.4,612.7,976.3,597.6,976.4L597.6,976.4z"/>
	<path class="st0" d="M944,544.2c-0.5,0-1,0-1.6-0.1c-4.3-0.7-7.5-4.3-7.8-8.6c-0.5-7.1-1.9-13.8-4.2-19.9
		c-1.8-4.9,0.7-10.3,5.5-12.1c4.6-1.7,9.8,0.5,11.8,4.9c3-3.5,8.3-4.3,12.3-1.7c4.3,2.9,5.5,8.7,2.7,13c-4,6-7.4,12.4-10.1,18.8
		C951.2,542,947.7,544.2,944,544.2"/>
	<path class="st0" d="M864,489c-3.6,0-7-2.1-8.6-5.6c-2.1-4.7,0-10.3,4.7-12.4c17.3-7.7,36.3-8,52.6-0.8c4.7,2.1,6.9,7.6,4.8,12.4
		c-2.1,4.7-7.6,6.9-12.4,4.8c-11.5-5.1-24.9-4.8-37.4,0.7C866.6,488.7,865.3,489,864,489 M814.8,562.8c-0.3,0-0.7,0-1-0.1
		c-5.2-0.6-8.9-5.2-8.3-10.4c1.9-17.7,7.5-33.7,16.5-47.5c2.8-4.3,8.7-5.6,13-2.7c4.3,2.8,5.6,8.7,2.7,13
		c-7.4,11.3-12,24.5-13.6,39.3C823.6,559.2,819.5,562.8,814.8,562.8 M832.1,652.8c-3.6,0-7-2.1-8.6-5.6
		c-6.9-15.5-11.9-30.9-15.1-45.8c-1.1-5.1,2.2-10.1,7.2-11.1c5.1-1,10.1,2.2,11.1,7.3c2.9,13.6,7.6,27.8,13.9,42.1
		c2.1,4.7,0,10.3-4.8,12.4C834.7,652.6,833.4,652.8,832.1,652.8 M883.6,729.4c-2.5,0-4.9-1-6.8-2.9c-6.2-6.4-12.1-13.3-17.8-20.3
		c-4.2-5.3-8.4-11-12.4-17c-2.9-4.3-1.7-10.1,2.6-13c4.3-2.9,10.1-1.7,13,2.6c3.7,5.5,7.5,10.8,11.4,15.7c5.3,6.6,10.9,13,16.6,19
		c3.6,3.7,3.5,9.7-0.3,13.3C888.2,728.5,885.9,729.4,883.6,729.4 M957.1,785.2c-1.5,0-3.1-0.4-4.5-1.2
		c-14.2-7.7-27.7-16.4-40.1-25.8c-4.1-3.1-4.9-9-1.8-13.2c3.1-4.1,9-4.9,13.2-1.8c11.7,8.9,24.4,17,37.8,24.3
		c4.5,2.5,6.2,8.2,3.7,12.7C963.6,783.5,960.4,785.2,957.1,785.2 M1043.2,819c-0.8,0-1.6-0.1-2.5-0.3c-15.7-4.2-30.9-9.2-45-14.6
		c-4.8-1.9-7.2-7.3-5.4-12.2c1.9-4.8,7.3-7.2,12.2-5.4c13.5,5.2,28,10,43.1,14c5,1.3,8,6.5,6.6,11.5
		C1051.1,816.3,1047.3,819,1043.2,819 M1134.3,835.6c-0.3,0-0.7,0-1-0.1c-16.1-1.8-31.8-4-46.5-6.6c-5.1-0.9-8.5-5.8-7.6-10.9
		c0.9-5.1,5.8-8.5,10.9-7.6c14.4,2.6,29.6,4.7,45.3,6.4c5.2,0.6,8.9,5.2,8.3,10.4C1143.1,832,1139,835.6,1134.3,835.6 M1226.9,841.1
		h-0.2c-16.7-0.3-32-0.9-46.7-1.8c-5.2-0.3-9.1-4.7-8.8-9.9c0.3-5.2,4.8-9.3,9.9-8.8c14.5,0.8,29.5,1.4,46,1.7
		c5.2,0.1,9.3,4.4,9.2,9.6C1236.2,837.1,1232,841.1,1226.9,841.1"/>
	<path class="st0" d="M1273.6,841.5c-5.2,0-9.4-4.2-9.4-9.4c0-5.2,4.2-9.4,9.4-9.4c7.7,0,15.4-0.1,23-0.2c4.9-0.2,9.4,4.1,9.5,9.3
		c0.1,5.2-4.1,9.4-9.3,9.5C1289.1,841.4,1281.4,841.4,1273.6,841.5L1273.6,841.5z"/>
	<path class="st1" d="M212.3,813.4c-16.4-26-31-54-34.8-84.4c-3.7-30.4,5.2-63.9,29.1-83.2c18.7-15.1,45.4-19.8,68.2-12
		c22.8,7.8,40.9,27.8,46.3,51.2c2.9,12.7,2.3,25.9,1.6,38.9c-0.3,5.1-0.5,10.2-0.9,15.4c-2,26.9,8.1-22,25.2-47
		c7.9-11.6,17.7-22.4,30.5-28.3s28.9-6.2,40.1,2.3c11.9,8.9,15.8,25.2,15.3,40c-1.5,48.8-40.2,89.1-82.9,113.4
		c-1.7,1-4.1,1.9-5.5,0.4c-1.4-1.4,2.3-3.7,2.2-1.7"/>
	<path class="st2" d="M209,773.5c15.1-1.7,30.3-3.4,45.4-5.1c28-3.1,56.6-6.2,84.2-0.3c49.3,10.6,90.4,52.3,100.1,101.5
		c9.7,49.2-12.6,103.2-54.2,131.5c-39.3,26.7-90.1,30-137.6,25.8c-26.5-2.3-53.1-6.8-77.5-17.3c-46-19.8-83-65.3-81.5-115.1
		c1.2-41.1,28.1-78.6,63-100.7c34.9-22,77-30.5,118.3-32.8c26.8-1.5,54.9-0.3,78.5,12.6"/>
	<path class="st2" d="M286,761.1c-5.9,0-11.5,0.2-16.8,0.5c-48.9,2.7-87.5,13.4-118,32.7c-37.6,23.7-61.6,62.1-62.7,100.1
		c-1.3,46.2,32,93.3,81.1,114.5c27.3,11.8,57.2,15.5,77.3,17.3c59.1,5.2,104-3.2,137.1-25.7c41.4-28.1,63.6-81.9,53.9-130.8
		c-9.5-48.3-49.6-89.5-97.9-100.6c2.6,1.1,5.3,2.4,7.8,3.8l-0.6,1.2c-4.8-2.6-9.8-4.8-14.9-6.5c-25.8-4.4-52.3-1.4-78,1.5l-45.4,5.1
		l-0.1-1.3l45.4-5.1c22.8-2.6,46.2-5.2,69.4-2.7C311.1,762,298.1,761.1,286,761.1 M279.3,1029c-10.3,0-21.1-0.5-32.5-1.5
		c-20.2-1.8-50.3-5.5-77.7-17.4c-49.6-21.4-83.3-69-81.9-115.8c1.1-38.5,25.4-77.3,63.3-101.2c30.7-19.4,69.5-30.1,118.6-32.9
		c18.9-1.1,42.2-1.1,63.6,6c2,0.3,4,0.7,5.9,1.1c49.5,10.6,90.9,52.6,100.7,102c9.7,49.4-12.7,103.8-54.5,132.2
		C357.8,1020,323.1,1029,279.3,1029"/>
	<path class="st3" d="M363.7,778c-5.2,63.8,4,218.2-4.5,227.2c-7.2,7.5-18.6,8.8-29,9.6c-5.5,0.4-12.2,0.4-15.4-4.1
		c-2-2.8-0.7-150.3-1.8-245C332.6,769.8,345.3,770.4,363.7,778"/>
	<path class="st3" d="M244.7,769.5c0.3,80,0.9,167.8,1.2,247.8c-14.6-1.5-39.5-3.2-50.3-17.9c-4.4-6-1.1-155,0.5-221.6
		C196.1,775.3,226.9,765.4,244.7,769.5"/>
	<path class="st3" d="M123.3,883.3c0.2,4.4,4,7.9,8.5,7.7c4.5-0.2,7.9-4,7.7-8.4c-0.2-4.4-4-7.9-8.5-7.7
		C126.5,875.1,123.1,878.8,123.3,883.3"/>
</g>
</svg>
