<?xml version="1.0" encoding="utf-8"?>
<!-- Generator: Adobe Illustrator 27.1.1, SVG Export Plug-In . SVG Version: 6.00 Build 0)  -->
<svg version="1.1" id="Layer_1" xmlns="http://www.w3.org/2000/svg" xmlns:xlink="http://www.w3.org/1999/xlink" x="0px" y="0px"
	 viewBox="0 0 1417.3 1417.3" style="enable-background:new 0 0 1417.3 1417.3;" xml:space="preserve">
<style type="text/css">
	.st0{fill:#FFFFFF;}
	.st1{fill:#494D5C;}
	.st2{fill:#75BCD4;}
	.st3{fill:#D21B3B;}
</style>
<polygon class="st0" points="413.2,269.9 335.3,310.2 308.4,390.8 308.4,823.3 297.7,1014 329.9,1093.2 394.4,1129.5 1009.5,1125.5 
	1072.6,1106.6 1110.3,1057 1117,971 1092.8,372 1067.3,308.9 975.9,271.2 590.5,249.8 "/>
<g>
	<path class="st1" d="M302.7,967.6l16,0.4c-1,41.4-0.2,80.9,21,108.2c29.5,38.1,87.7,40.8,139.8,40.6l472.7-3
		c46.6-0.3,94.4-3.1,121.7-33.2c25.2-27.7,25.9-72.2,24.6-115.3l-17.9-553.9c-1.1-34.8-3.5-65.3-20.9-86.5
		c-19.1-23.3-53.6-30.7-84.5-35.9c-114.4-19.3-231.7-26-348.5-19.9c-12,0.6-26.2,1-41.3,1.3c-78.4,1.8-196.7,4.6-236.6,55.2
		c-30.7,39.1-26,126.3-22.6,190c1.2,22.6,2.3,44,1.9,61.2L318.7,968L302.7,967.6z M474.2,1148.8c-62.4,0-124.3-7.1-159.9-53
		c-27.6-35.6-28.8-81.1-27.7-128.5l9.5-391.2c0.4-15.9-0.7-36.7-1.9-58.7c-3.9-72.6-8.7-163,29.4-211.5
		c49.1-62.5,171.6-65.4,261-67.5c14.8-0.3,28.8-0.7,40.3-1.3c119.2-6.2,238.8,0.6,355.5,20.3c36.6,6.2,77.8,15.4,103.9,47.2
		c25.8,31.4,27.2,74.4,28.2,105.8l17.9,553.9c1.6,49.7,0.4,101.3-32.9,137.9c-36,39.7-93.8,43.4-145.2,43.7l-472.7,2.9
		C477.9,1148.8,476,1148.8,474.2,1148.8"/>
	<path class="st1" d="M573.8,498.9c-85.9,0-171.7-1-257.1-3.1l0.8-32c255,6.1,513.6,3,768.4-9.1l1.5,32
		C917.1,494.9,745.2,498.9,573.8,498.9"/>
	<path class="st1" d="M967.6,335.9c-46.8,0-46.9,72.8,0,72.8C1014.4,408.7,1014.5,335.9,967.6,335.9"/>
	<path class="st1" d="M848.5,333c-46.8,0-46.9,72.8,0,72.8C895.3,405.8,895.4,333,848.5,333"/>
	<path class="st1" d="M714.9,335.9c-46.8,0-46.9,72.8,0,72.8C761.7,408.7,761.8,335.9,714.9,335.9"/>
	<path class="st1" d="M696.4,596.1c-28.4,0-65.2,4.1-95.2,20.9c-25.3,14.3-45.4,36.2-58.2,63.4l-0.7,1.6l-1.1,1.4
		c-15.8,20.4-27,43.8-32.5,67.4c-18.4,79.2,21.3,162,96.4,201.4c73.8,38.8,150.5,42.5,216,10.6c67.7-33,96.4-117.8,89.7-184.5
		c-5.5-55.3-23.2-95.6-55.5-126.9c-32.9-31.8-76.5-49.6-133.2-54.4C715,596.5,706.2,596.1,696.4,596.1 M727.3,1016.5
		c-45.1,0-91.7-12-137.1-35.8c-88-46.2-134.3-143.7-112.7-237.1c6.5-28,19-54.4,37.3-78.4c15.7-32.6,40.1-58.9,70.7-76.1
		c47.8-26.9,107.8-26.5,139.3-23.8c64.4,5.4,114.4,26.1,152.8,63.3c37.5,36.3,58.8,84.3,65.1,146.7c7.5,75.4-22.9,175.2-107.6,216.5
		C801.2,1008.2,764.8,1016.5,727.3,1016.5"/>
	<path class="st2" d="M901.4,794c0.7-3.8-7.3,2.9-11.1,4.3c-49.5,18.2-110.8,30.4-161.5,23.1c-34.4-5-67.7-15.6-101.8-21.7
		c-34.2-6.1-80.7-4.3-112.8,8.9c0,0,30.6,149.9,187.8,155.7C831.9,969.1,873.7,946.8,901.4,794"/>
	<path class="st3" d="M643.9,708c-2.5-8.7-3.6-18.7,1.2-26.3c5.6-9,17.7-12,28.2-10.3c19.5,3.2,35.5,21,36.5,40.7
		c3.2-11.5,7.2-24.5,14.6-33.9c7.4-9.3,19.9-15.6,31.3-12.2c11.2,3.4,18.1,15.5,18.9,27.2c0.8,11.7-3.3,23.2-7.9,34
		c-10.9,25.7-33.3,48.1-57.9,65.6C708.9,792.8,654,742.7,643.9,708"/>
</g>
</svg>
