<?xml version="1.0" encoding="utf-8"?>
<!-- Generator: Adobe Illustrator 27.1.1, SVG Export Plug-In . SVG Version: 6.00 Build 0)  -->
<svg version="1.1" id="Layer_1" xmlns="http://www.w3.org/2000/svg" xmlns:xlink="http://www.w3.org/1999/xlink" x="0px" y="0px"
	 viewBox="0 0 1417.3 1417.3" style="enable-background:new 0 0 1417.3 1417.3;" xml:space="preserve">
<style type="text/css">
	.st0{fill:#F3F0EF;}
	.st1{fill:#7AB45E;}
	.st2{fill:#F0ECEB;}
	.st3{fill:none;stroke:#5DBFC9;stroke-width:6.0346;stroke-miterlimit:10;}
	.st4{fill:#373E50;}
	.st5{fill:none;stroke:#7AB45E;stroke-width:10.8966;stroke-miterlimit:10;}
</style>
<path class="st0" d="M1117.7,558.3c-32.3-42.7-106.5-81.3-164-74.7c-7.3,0.8-14.4,1.9-21.3,3.2c-2.1-51-22.8-100.3-57.3-135.5
	c-34.7-35.1-85.2-55.4-135.2-52.8c-31.7,1.6-64.4,12.2-90.3,30.9c-12.4,8.9-24.2,20.1-33.9,31.9c-5.9,7.3-9.9,20.3-12.4,31
	c-17.1-19.2-40.8-34.5-72.2-43c-127.9-34.6-205,90.8-180.6,189.3c-18.2-0.5-36.5,2.8-53.2,9.9c-52.3,22.4-93.5,79.5-92.4,134.3
	c0.7,38.2,9.2,100.4,34.9,126.8c0.9,0.9,1.8,1.6,2.7,2.4C328.8,972,450,1163.9,737.7,1091.6l151.5-25.9c21.1-2.6,86.5-59.1,105-71.2
	c9.7-8.5,63.8-74,73.4-82.6c8.8-10.1,35.6-79.8,41.6-92c21.8,11.6-9.6-30.6,12.8-33.2c7.8-0.9,21.6-43.9,4.6-13
	c-5-1.6,10-23.3,17.9-45.5C1177.1,635.9,1158.3,612,1117.7,558.3z"/>
<path class="st1" d="M1219.7,833.1c-3.1,8.3,13.7,13.5,17.3,22.2c3.5,8.7,12.9,19.7-4.6,26.1c-17.5,6.4-20.1-27.6-36.2-34
	c-4.6-1.8-9.7-1.6-14.7-1.4c-31.2,1.4-62.3,2.8-93.5,4.2c-7.7,0.3-17.1-0.2-20.6-7c-4-7.7,4.1-17,12.7-18.7s17.4,1.4,26.1,2.6
	c14.4,2,29.1-1,43.4-4c12.3-2.6,25-5.4,35-13c11.6-8.8,17.7-22.7,25.5-34.9c3.3-5.1,7.2-10.2,12.7-13s12.8-2.8,17.2,1.4
	c6.4,6.3,2.8,17.4-3.4,23.9s-14.5,11.1-19.1,18.8c8.8,1.8,17.7-1.8,26.5-3.2c8.9-1.4,19.9,0.8,22.9,9.1c3.1,8.5-5.2,17.8-14.3,19.4
	C1243.6,833.5,1222.9,824.8,1219.7,833.1z"/>
<path class="st1" d="M189.3,887.5c1.4,7.9-14.4,9.9-19,17.2s-14.7,15.6-0.3,23.9s22.4-21.6,37.7-24.9c4.4-0.9,8.9,0,13.2,0.9
	c27.4,5.8,54.8,11.7,82.2,17.5c6.8,1.4,15.2,2.3,19.4-3.2c4.8-6.3-0.8-15.7-8.2-18.5c-7.4-2.7-15.6-1.3-23.5-1.5
	c-13.1-0.3-25.6-5.2-37.7-10c-10.4-4.1-21.3-8.5-28.8-16.7c-8.8-9.6-11.9-22.8-16.8-34.8c-2.1-5.1-4.7-10.1-9.1-13.5
	c-4.4-3.3-10.9-4.4-15.5-1.3c-6.7,4.7-5.4,15-1,21.8c4.4,6.7,11,12.1,13.8,19.6c-8.1,0.3-15.4-4.2-23-6.8
	c-7.6-2.5-17.8-2.2-21.8,4.7c-4.1,7.1,1.6,16.6,9.4,19.4C168.1,884.2,187.9,879.6,189.3,887.5z"/>
<g>
	<path class="st2" d="M1123.4,817.8C1126.5,818.8,1128.2,818,1123.4,817.8L1123.4,817.8z"/>
	<g>
		<path class="st3" d="M976.8,736.1"/>
	</g>
	<g>
		<g id="XMLID_00000002385887845190011110000013918402256016750991_">
			<path id="XMLID_00000025400859537954305750000001219598354689527457_" class="st4" d="M809.6,649.2c-0.3,3.2-1.9,6.6-5.2,10
				c-9.8,10-25.1-0.3-23.8-12.7C782.6,628.3,811.3,631.7,809.6,649.2z"/>
		</g>
	</g>
	<g>
		<g id="XMLID_00000035526149262139276790000011834222642862690724_">
			<path id="XMLID_00000148629674362197372120000001386114975602391713_" class="st4" d="M588.5,639.5c-0.4,3.6-2.1,7.5-5.9,11.3
				c-11,11.2-28.2-0.3-26.7-14.3C558.1,616,590.4,619.8,588.5,639.5z"/>
		</g>
	</g>
</g>
<path class="st5" d="M870.5,847.5c20-20.9,32-46.6,51.2-68.1c19.5-21.7,43.1-39,68.4-52.4c41.3-22,86.6-34.4,131.6-46.7
	c-67.8,15.4-131.8,45.9-187,89c33.9-21.8,69.5-40.7,106.2-56.8c33.5-14.6,71.3-21.5,103-39c-101.3,12.1-196.1,64.4-262.3,144.7
	c53.9-89.8,156.8-141.6,258.8-130.3c-112.8,42.6-214.3,115.7-292.7,210.9c61.9-39.2,122.5-80.7,181.2-125
	c32.8-24.7,65.7-51,88.3-86.5c-33.9,48.9-77.9,88.3-120.6,128.5c-65.2,61.6-127.8,126.1-187.8,193.5c36.1-28.5,78.6-46.7,117.3-71.2
	c85-53.7,150-136.4,205.9-223.3c-46.6,92-112.8,171.8-192.4,232.1c-34.7,26.3-71.9,48.8-109,71.3c24.3-3.6,46.2-16,67.1-28.9
	c93.2-57.6,178.8-133,233.3-232.4c-16.4,60-44,115.8-80.5,163.7c-18.3,24-38.8,45.7-61.1,65.4c-19.1,17-36.7,23.2-60.2,33.1
	c-65.4,27.4-134.5,45.5-205.1,53.8c104.4-55.5,209.2-111.3,304.7-182.2c11.3-8.4,23.7-21.9,17.9-35.9
	c-103.6,57.5-204,121.4-300.4,191.3c80.7-94.2,194.4-147.7,287.7-227.6c-98.5,68.1-194.2,140.5-287,216.9
	c51.3-88.5,151.4-128.7,218.2-204.1c-97.2,51.4-171.2,139.6-242.9,225.9c15.7-38.9,35.9-75.5,60-108.7
	C808.9,912,839.8,879.7,870.5,847.5z"/>
<path class="st5" d="M1165.5,670.4c-7.4,35.3-18.7,69.4-31.3,102.7c-21.6,57.2-47.3,112.8-81.8,161.7
	c-34.4,48.9-78.1,91.1-130.2,117c-73.4,36.4-158.6,38.7-241.2,34.2c64.8-132.8,157.8-248.5,270.4-336.6
	c34.7-27.1,71.8-51.9,113.5-64.6c34.1-10.4,70.6-12.4,104.1-24.9c-22.1,44.8-44.2,89.6-66.3,134.4c-43.4,88-90.7,180.3-172.3,227.9
	c-21.3,12.4-44.2,21.3-67.2,29.9c-54.8,20.5-111.4,39.7-170.4,37.9c66.9-143.9,171.6-265.8,299.6-349c36-23.4,75.8-44.3,118.9-42.9
	c-9.6,10.5-20.8,19.2-31.7,28.1c-104.2,84.1-192.1,188.5-279.4,292.3c112.6-82.3,225.4-169.1,305.1-287.5
	c-49.5,105.4-117.9,206-218,255.4c75.1-27.8,132.6-91.1,180.2-158.4c22.1-31.3,43.4-65.8,46.6-105.7c-9.4,11.2-18.8,22.5-28.2,33.7"
	/>
<path class="st5" d="M788.2,1050.3c86.6-13,166.4-62.1,219-134.9"/>
<path class="st5" d="M761,1008c65.7-108.5,162-194.5,274-244.6"/>
<path class="st5" d="M1063,803.7"/>
<path class="st5" d="M1035.8,880.4"/>
<path class="st5" d="M980.4,886.6"/>
<path class="st5" d="M935,989.1"/>
<path class="st5" d="M951.4,854.3"/>
<path class="st5" d="M949.9,853"/>
<path class="st5" d="M842.1,889.9"/>
<path class="st5" d="M1066.8,772"/>
<path class="st5" d="M965,785.7"/>
<path class="st5" d="M830.7,977.2"/>
<path class="st5" d="M893.8,931.4"/>
<path class="st5" d="M525.4,878.7c-22.9-17.6-38.6-41.3-60.9-59.6C442,800.5,416,787,389,777.5c-44.1-15.5-90.8-21-137.2-26.3
	c69.3,5,137.2,25.5,198.3,59.8c-36.8-16.4-74.8-29.8-113.6-40.1c-35.4-9.4-73.8-10.5-107.7-23c102-3.3,203.6,34.1,281.1,103.5
	c-66.8-80.7-176.4-116.4-275.5-89.8c118,25.1,229.2,82.1,321.1,164.4c-67.1-29.5-133.2-61.4-197.9-96.3
	c-36.2-19.5-72.6-40.5-100.4-72.2c40.9,43.2,90.4,75.5,138.5,108.9c73.7,51,145.4,105.4,214.8,163c-40-22.7-84.7-34.3-126.7-52.7
	C391.9,936.4,315.2,864.5,246.8,787c59.9,83.9,137.4,152.9,225.1,200.4c38.3,20.8,78.4,37.4,118.5,54.1
	c-24.5,0.1-48.1-8.8-70.7-18.5c-100.8-42.9-196.8-104.5-265.7-194.6c25.2,56.9,61,107.9,104.3,149.7c21.7,21,45.3,39.3,70.3,55.5
	c21.5,13.9,39.8,17.4,64.5,23.6c68.7,17.2,139.8,24.7,210.8,22.3c-111.6-39.1-223.6-78.5-328.6-134.2c-12.4-6.6-26.7-18-23.1-32.8
	c111.1,41.3,219.9,89.3,325.8,143.8c-94-80.9-214.4-116.8-318.7-181.7c107.6,52.5,213.2,109.6,316.4,171.2
	C611.6,966,506.6,941.4,429.2,876.9C533,913,619.4,989.1,703.3,1063.6c-21.4-36.1-46.9-69.2-75.7-98.5
	C596,933.1,560.7,905.8,525.4,878.7z"/>
<path class="st5" d="M207.1,748.1c12.6,33.8,29,65.8,46.4,96.8c30,53.3,63.8,104.4,105.2,147.6c41.4,43.2,90.9,78.3,146.4,96
	c78,24.9,162.7,14.4,243.6-2.6c-84.1-121.5-193.4-221.9-318-292c-38.4-21.6-78.8-40.5-121.9-46.8c-35.3-5.1-71.7-1.7-106.7-8.9
	c28.6,40.9,57.2,81.9,85.8,122.8c56.1,80.4,116.9,164.6,204.6,199.3c22.9,9.1,46.9,14.4,70.9,19.5c57.2,12,116.1,22.4,174.2,11.8
	C649.9,959.5,528,854.7,388.9,791.8c-39.1-17.7-81.6-32.3-124.1-24.5c11.1,9,23.4,15.9,35.6,23c115.7,67.4,218.3,157.4,320.2,246.8
	C497,972.7,372.4,903.9,275.8,798.8c64.8,96.7,147.6,185.9,254,219.7c-78.4-16.2-144.8-70.1-202-129.4c-26.6-27.6-52.8-58.5-62-97.4
	c11,9.7,22,19.4,33,29.1"/>
<path class="st5" d="M637.4,1066.7c-87.6,0.2-173.8-36.4-236.8-100.4"/>
<path class="st5" d="M657.8,1020.8c-81.3-97.4-189.5-167.9-307.8-200.5"/>
<path id="XMLID_00000084501541257868809460000012673699863751090567_" class="st4" d="M677.3,799.4c-16.5-4.4-28-20.2-30.8-35.1
	c-0.3-1.6,0.7-3.2,2.4-3.5c1.6-0.3,3.1,0.7,3.5,2.4c2.9,15.2,16.1,31,33.4,31.4c22.8,0.6,35.1-9.9,38.6-32.9
	c0.2-1.6,1.8-2.7,3.4-2.5c1.5,0.7,2.7,1.8,2.5,3.4c-3.9,25.8-19,38.5-44.6,37.9C682.7,800.4,680,800.1,677.3,799.4z"/>
</svg>
