<?xml version="1.0" encoding="utf-8"?>
<!-- Generator: Adobe Illustrator 27.1.1, SVG Export Plug-In . SVG Version: 6.00 Build 0)  -->
<svg version="1.1" id="Layer_1" xmlns="http://www.w3.org/2000/svg" xmlns:xlink="http://www.w3.org/1999/xlink" x="0px" y="0px"
	 viewBox="0 0 1417.3 1417.3" style="enable-background:new 0 0 1417.3 1417.3;" xml:space="preserve">
<style type="text/css">
	.st0{fill:#A9D4C9;}
	.st1{fill:#07A19B;}
	.st2{fill:#DD7429;}
	.st3{fill:#CF1331;}
	.st4{fill:#DBEEEF;}
	.st5{fill:#DAEEEF;}
</style>
<g>
	<path class="st0" d="M519.3,983.6h88.6c-2.5-17.7-4.6-41.4-3.7-69.3c0.3-10.4,2.2-51.1,17.9-105.1c14-48.1,21-72.2,42.3-93.9
		c9.2-9.4,38.1-38.8,78.2-36.9c35.8,1.7,59.5,27.4,74.9,44.1c32.6,35.4,42.1,74,50.5,109.9c7.7,33,15.6,85.4,7.3,151.1h115.4
		c5.4-31.7,9.8-79.9-0.6-136.7c-5.6-30.8-26-134.2-117.3-213.4c-32.1-27.8-109.2-94.8-185.7-73.8c-37.9,10.4-62.7,38.7-96.1,77
		c-35.8,41-53.5,78.7-66.8,107.5c-26.7,58.1-48,105.4-37.5,163.7C493.1,941.9,508.1,967.7,519.3,983.6"/>
	<path class="st1" d="M533.3,983.6c-2.1-32.9-2.1-79.3,8.2-133.5c7.7-41,15.1-81.1,39.9-123.3c14.1-23.9,71.7-121.9,161.2-120.6
		c81,1.1,133.3,82.7,144.3,99.8c28.6,44.5,34,88.4,42.9,156.2c6.6,50.3,6.6,92.5,5.3,121.4h134.4c-3.3-31.9-9.5-77.2-22-130.8
		c-33.8-145.4-59.4-255.4-143.8-318.8c-102.8-77.3-277.8-73.4-399.1,13.5c-131.3,94-183.2,273.4-120.9,436
		C433.7,983.6,483.5,983.6,533.3,983.6"/>
	<path class="st2" d="M356.2,983.6h91.9c-2.7-22-5.5-55.2-3.4-95.3c2.6-50.3,7.8-153.5,77.4-247.9c22.8-31,52.1-70.7,107.9-95.3
		c89.8-39.7,175.1-7.8,188.1-2.7c71.8,28,107.8,82.2,132.7,119.9c32,48.1,43.6,90.9,55.3,133.5c11.9,43.1,24.8,107.4,23.8,188h135
		c0.9-35.6-0.7-85.8-12.1-144.4c-13.4-68.3-38.2-193.7-141.1-294.2C984,517.9,870.2,406.6,707.5,416.9
		c-194.3,12.2-298.4,187.3-326.4,234.3c-25.4,42.7-79.9,134.3-58.1,245.2C330.4,934.3,344.8,963.9,356.2,983.6"/>
	<path class="st3" d="M267.7,983.6c-5.3-53.3-7.3-142.5,24.9-245.2c18.9-60.2,53-169.1,160.4-256.1c34.6-28,130.2-97,271.1-103.5
		c48.8-2.2,172-0.2,284.9,81.7c102.2,74.1,139.1,171.9,168.7,250.7c42.1,111.9,46.7,211.2,44.7,272.5h-99
		c0.1-44-3.7-108.2-23.1-182.6c-24.2-92.5-54.3-208.3-161.4-283.9c-34.2-24.1-113-70.3-218.2-64.3c-112.1,6.4-185.4,68.2-215.9,94.7
		c-94.4,82-120.9,184.1-134.7,237.1c-21.6,83.2-18.9,154.5-13.8,198.9C326.7,983.6,297.2,983.6,267.7,983.6"/>
	<path class="st4" d="M1091.1,731.7c-57.8-28.7-147.8,16.4-157.6,76.3c-5.6,34.1,16.4,63.1,24.3,72.5c-34.1-25-81.9-22.2-110.7,5
		c-34.2,32.2-25.2,82.9-3.3,108.1c23,26.5,62.4,27.3,94.3,28c265.6,5.6,355.7,12.9,411.4-38.2c7.3-6.7,20-19.9,21.9-38.3
		c3.7-35.1-32.5-81-75.6-79.6c-24.2,0.8-41.5,16.2-47.8,22.6c20.9-13.9,32.6-35.9,30.1-57.4c-3.8-31.7-36.9-47.9-58.4-52.3
		c-44.1-9.1-76.9,23.5-78.6,25.4C1138.9,793.8,1128.8,750.5,1091.1,731.7"/>
	<path class="st5" d="M42.5,987.5c-19.1-33,6.9-89.7,43.8-114.2c6-3.9,19.7-12.8,39.6-14.4c19.6-1.6,39.7,4.2,57.1,17.1
		c2.4-16.8,8.8-46.7,27.6-76.1c6.8-10.6,34-53.1,73.7-59.8c45.1-7.7,96.1,32.5,122,100.6c6.9-10.1,25-33.6,55.2-43.5
		c9.9-3.2,32-10.5,53,0c28.4,14.2,45.9,56.9,43.8,106.1c4-3,27.7-20,55.3-13.6c37.1,8.7,57.6,54.4,46,81.5
		c-4.8,11.2-14.7,18.4-39.4,29.5c-64.2,28.6-115.1,34.1-115.1,34.1c-40.2,4.3-70.5,4.2-168.9,0c-57.7-2.5-109.4-5.1-176.5-13.4
		C64.7,1009.8,50.1,1000.6,42.5,987.5"/>
</g>
</svg>
