<?xml version="1.0" encoding="utf-8"?>
<!-- Generator: Adobe Illustrator 27.1.1, SVG Export Plug-In . SVG Version: 6.00 Build 0)  -->
<svg version="1.1" id="Layer_1" xmlns="http://www.w3.org/2000/svg" xmlns:xlink="http://www.w3.org/1999/xlink" x="0px" y="0px"
	 viewBox="0 0 1417.3 1417.3" style="enable-background:new 0 0 1417.3 1417.3;" xml:space="preserve">
<style type="text/css">
	.st0{fill:#DD4139;}
	.st1{fill:none;}
	.st2{fill:#4CAEA5;}
	.st3{fill:#486D84;}
	.st4{fill:#EEEAE8;}
	.st5{fill:#AFB2B4;}
	.st6{fill:#F2EEED;}
	.st7{fill:#E2323A;}
	.st8{clip-path:url(#SVGID_00000170263465218979398970000007646026020647411846_);fill:#EFF4F2;}
	.st9{fill:none;stroke:#4CAEA5;stroke-width:11.4471;stroke-linecap:round;stroke-miterlimit:10;}
	.st10{fill:#DC403B;}
	.st11{fill:#4BAEA6;}
	.st12{fill:#F1F6F4;}
	.st13{fill:#47576F;}
</style>
<g>
	<path class="st0" d="M92.3,602l-5-1.3c0,0-1.3-3.5-0.9-3.8c0.4-0.3,5.3-5.4,5.3-5.4l6.5-4.9l5.2-1.5l3.5-0.6l1.1,4.7l-10.2,10
		L92.3,602z"/>
	<g>
		<path class="st1" d="M517.5,634.1c3.7,12.8,3.3,27.4,11.4,38c12.1,15.8,36.5,14.8,52.7,26.3c8.4,6,16.8,15.9,26.7,12.9
			c4-5.7-1.9-13.3-8.1-16.4c-15.5-7.9-37.4-7.1-45.7-22.5c-5.4-10-2.2-23.1-8.2-32.7c-2.2-3.5-5.4-6.2-8.3-9.1
			c-7.9-7.6-28.2-50.8-35.1-47.6C486.5,590.7,514.8,625,517.5,634.1z"/>
		<path class="st2" d="M722.5,956c0.9-1,1.8-2.1,3-2.5c1.2-0.5,2.9-0.1,3.5,1.1c0.4,1,0,2.1-0.5,3.1c-3.4,6.7-9.3,11.8-15,16.7
			c-8.5,7.2-17.4,14.8-27.9,19.1c-5.4,2.2-20.6,6.4-13.2-4.4c3.8-5.5,20.1-8.9,26.2-12.7C707.5,970.8,715.6,963.9,722.5,956z"/>
		<path class="st2" d="M603.8,594.9c21.1-7.6,40.3-19.6,57.7-33.7c2.5-2,6.8-3.9,8.4-1.1c1.1,1.9-0.3,4.2-1.7,5.8
			c-5.4,6-12.5,10.1-19.5,14.1c-9,5.1-17.9,10.2-26.9,15.3c-8.3,4.7-16.6,9.4-25.5,12.9c-3.8,1.5-7.8,2.7-11.9,2.5
			c-6.7-0.3-11.8-5.7-6.4-10.5C582.5,596.3,597.8,597.1,603.8,594.9z"/>
		<path class="st2" d="M728.2,622.2c2.6,2.6-0.4,6.9-3.3,9.2c-37.6,30.3-81.1,53.4-127.3,67.7c-4.6,1.4-21.8,8-26.1,4.5
			c-6.6-5.3,5.2-8.4,9.5-9.7c17.7-5.2,35.3-9.5,52.5-16.4C667.7,664,699.7,645.3,728.2,622.2z"/>
		<path class="st2" d="M672.6,762.5c31.8-13.6,61.2-32.4,89.6-52.2c3.3,1.4,1.1,6.4-1.5,8.9c-24,22.9-54,38.9-85.2,50.3
			c-19.7,7.2-39.9,12.6-60.3,17.5c-6.1,1.4-49.5,14.2-48.6,4.4c1-11.4,38.3-9.8,45.2-10.9C632.8,777.1,653.2,770.8,672.6,762.5z"/>
		<path class="st2" d="M696.8,865.7c11.3-7.8,21.9-16.7,34.1-23.2c2,3.5-0.9,7.7-3.8,10.6c-22.7,22.5-51.1,39.2-81.7,48.2
			c-5.9,1.7-39.5,11.8-41.1,4.9c-2.1-9,33.9-12.8,40-14.8C662.8,885.4,680.6,876.8,696.8,865.7z"/>
		<g>
			<g>
				<g>
					<g>
						<g>
							<g>
								<path class="st3" d="M125.5,586.5c-9.3,3-16.2-1-24.5,5.2c-4.5,3.4-6.6,7.7-9.1,12.9c-2.9,6-6.4,15.2-4.3,22
									c2.3,7.6,17.4,6.4,24.3,7.4c48.2,7.2,96.5,14.4,144.7,21.5c1.9,0.3,3.9,0.6,5.8,0.9c4.3,0.6,9,1.2,12.6-1.1
									c3.6-2.3,5-6.2,6.4-10.8c1.5-4.9,3.7-12.4,0.2-20.8c-4-9.5-12.5-13.4-14.5-14.2c1.8-4.8,4.5-13.8,2.8-24.8
									c-0.7-4.8-2.1-8.6-2.7-10.1c-8.3-19.9-47.9-24.1-57.5-25.1c-24.9-2.6-44.7-4.7-58.8,7.6
									C138.4,567.9,139.6,581.9,125.5,586.5z"/>
							</g>
						</g>
						<path class="st4" d="M145.1,577.1c-3.3,6.7-3.2,8-2.8,8.9c1.1,2.7,5,3,11.8,4.1c18.9,3,24.8,5.9,27.8,2.4
							c0.5-0.6,0.6-1,1.4-5.4c3.7-20.8,2.3-14,3.6-21.8c1.2-7.3,1.5-7.8,0.8-9c-3.1-5-15.8-3.6-24.2,0.3c-1.5,0.7-6.9,3.3-11.7,9
							C149.5,568.3,148,571.2,145.1,577.1z"/>
						<path class="st4" d="M197,593.9c2.4,3.7,6.2,3.5,24.4,5.9c19.8,2.7,23.5,4,26.7,1c1.9-1.8,0.6-2.2,3.9-19.7
							c0.9-4.8,1.8-8.9-0.5-12.2c-1.4-2-3.3-2.9-4.8-3.5c-15.5-6.6-28.2-7.4-28.2-7.4c-8.3-0.5-12.5-0.8-15.3,1.6
							c-1.2,1-3,2.9-5,14.8C196.2,585.6,195.2,591.1,197,593.9z"/>
					</g>
					<path class="st0" d="M104.7,599.1c-0.3,0.9-0.7,1.9-1.4,2.6c-1.3,1.2-3.4,1.1-5.2,0.8c-1.2-0.2-2.5-0.3-3.7-0.5
						c-0.3,0-0.6-0.1-0.8-0.2c-0.5-0.3-0.8-1-0.6-1.6s0.5-1.2,0.8-1.7c1.8-2.6,3.8-5,6.3-6.8c1.2-0.9,6.5-4.1,7.9-2.6
						C108.9,590.1,105.2,597.7,104.7,599.1z"/>
					<path class="st0" d="M283.5,626.6c0.6,2.2,0.9,4.5,0.5,6.8c-0.2,1-0.5,2-1.4,2.3c-1,0.3-2-0.4-2.5-1.3
						c-0.5-0.9-0.7-1.9-1.1-2.8c-0.7-1.4-1.9-2.4-2.6-3.8c-1.2-2.3-0.5-6.8,2.2-7.8C281.2,619,282.9,624.6,283.5,626.6z"/>
					<path class="st5" d="M207.3,652.9c-1,4.2-1.1,8.8,0.8,12.8c1.4,3,3.8,5.3,6.2,7.5c4.1,3.6,8.6,6.7,13.8,8.3
						c14,4.2,30.5-5.8,33.1-20.2C267.6,626,215,620.3,207.3,652.9z"/>
					<path class="st3" d="M220.9,654.8c-0.5,2.1-0.5,4.4,0.4,6.3c0.7,1.5,1.9,2.7,3.1,3.7c2,1.8,4.3,3.3,6.9,4.1
						c6.9,2.1,15.2-2.9,16.5-10C250.9,641.5,224.7,638.6,220.9,654.8z"/>
				</g>
				<g>
					<path class="st5" d="M119.6,636.5c-1,4.2-1.1,8.8,0.8,12.8c1.4,3,3.8,5.3,6.2,7.5c4.1,3.6,8.6,6.7,13.8,8.3
						c14,4.2,30.5-5.8,33.1-20.2C180,609.6,127.3,603.9,119.6,636.5z"/>
					<path class="st3" d="M134.2,638.5c-0.5,2.1-0.5,4.4,0.4,6.3c0.7,1.5,1.9,2.7,3.1,3.7c2,1.8,4.3,3.3,6.9,4.1
						c6.9,2.1,15.2-2.9,16.5-10C164.3,625.2,138.1,622.3,134.2,638.5z"/>
				</g>
			</g>
			<path class="st2" d="M533.9,975c-36.1,38.6-60.8,86.3-82.1,134.7c-1.3,3.1-2.8,6.2-5.3,8.4c-4.2,3.5-10.3,3.5-15.7,3
				c-17.9-1.6-36.3-5.8-53.6-0.6c-17.3,5.1-32.1,24.3-24.7,40.7c3.4,7.5,10.4,12.6,17.2,17.3c20.1,14,40.1,27.9,60.2,41.9
				c10.5,7.3,22,14.9,34.7,14.2c14.3-0.8,26-12.1,33-24.5s10.8-26.5,17.6-39.1c14.9-27.7,43.1-45.9,71.8-58.7
				c28.8-12.8,59.4-21.6,86.8-37.1c23.5-13.3,44.8-32,56.6-56.3c23.7-48.7-3.2-105.8-58.5-113.8C622.9,897.7,564.6,942.1,533.9,975z
				"/>
			<path class="st6" d="M466.4,383.5c6.1,5.6,13,10.5,20.3,14.4c1.3,0.7,2.7,1.3,4.1,0.8c1-0.4,1.6-1.5,2.1-2.6
				c3-6.1,5.4-12.4,7.3-18.9c0.7-2.6,1.6-5.5,4.1-6.6c2.3-1,5,0,7.3,1.1c7.5,3.3,15.2,6.1,23.1,8.3c1.4,0.4,3,0.7,4.2-0.1
				c0.9-0.6,1.2-1.7,1.5-2.8c1.7-5.5,4.1-10.7,7.2-15.6c0.6-0.9,1.4-2,2.5-2.1c0.9-0.1,1.8,0.4,2.6,0.9c2.6,1.7,5,3.9,7,6.3
				c0.6,0.7,1.1,1.5,1.2,2.4c0.1,0.9-0.3,1.7-0.8,2.5c-4.3,7.6-11.6,12.9-19,17.5c-10.6,6.5-21.9,11.8-33.1,17
				c-9.2,4.3-25,13.7-35.4,8.2C462.7,408.9,463.2,392.3,466.4,383.5z"/>
			<path class="st6" d="M448.9,349.2c5.7-5.4,11-11.1,16-17.1c1.1-1.3,2.7-2.7,4.2-2c0.8,0.4,1.1,1.2,1.4,2c1.7,5,1,10.6,2.2,15.8
				c1.2,5.2,5.8,10.5,11,9.1c2.4-0.6,4.2-2.5,5.9-4.3c4.5-4.8,9-9.6,13.6-14.4c2.6-2.7,5.4-5.6,9.1-6.1c0.8,6,1.6,12,2.3,18.1
				c0.5,4.2,1.3,8.9,4.7,11.5c2.8,2.2,6.8,2.3,10.1,1.1c3.3-1.2,6.1-3.5,8.7-5.9c3-2.8,5.8-5.8,8.4-9c0.8-0.9,1.5-1.9,1.6-3.1
				c0.1-1.2-0.6-2.3-1.3-3.3c-9.4-13.5-24.8-22.2-40.8-26.2c-16.2-4-34.4-4.4-50.9-2c-11.8,1.7-17.1,9.1-16.5,20.8
				C439,339.7,440.1,357.6,448.9,349.2z"/>
			<path class="st2" d="M430.9,597.7c-20,1.6-39.3-6.4-58.2-11.4c-23.3-6.2-45.7-18.4-67.8-28.1c-8.9-3.9-16.4-6.8-26.1-5.8
				c-2.5,0.3-31.8,0.5-31.4,3c0.4,2.4,3.5,3.1,5.7,4.2c2.4,1.1,4.1,3.2,5.8,5.2c3.4,4,6.9,8.1,8.9,13c1.6,3.8,2.2,8.5,0.7,12.5
				c-1.3,3.3-5.4,5.4-8.6,7.1c-3.6,1.8-7.5,2.8-11,4.8c-3.4,2.1-6.3,5.9-5.5,9.8c0.9,4.4,5.7,6.7,10,7.9c11.6,3.2,23.7,3.2,35.7,3
				c14.1-0.3,28.1,4.2,42,6.6c15.1,2.6,30.3,4.8,45,8.8c8.9,2.4,17.8,4.8,26.6,7.9c22.5,7.9,44,17.3,68.1,18.4
				c25.6,1.2,52.9-12.3,73.3-26.6c25.4-17.8,121.3-93.3,46.4-104.3C523.7,523.8,492.5,592.8,430.9,597.7z"/>
			<path class="st7" d="M890.9,622.1c0.5,0,1.1,0.1,1.5,0.3c1,0.5,1.4,1.7,1.4,2.8c0,2.8-2.1,5.1-4.1,7.1
				c-8.2,8-17.4,14.9-27.4,20.5c-1.4,0.8-2.9,1.6-4.5,1.7c-10.7,1-14.9-22.8-8.9-29.4C856.5,616.9,881,621.3,890.9,622.1z"/>
			<path class="st7" d="M909.5,751.2c7.8-2,16.3-3,23.8-0.1c0.6,0.2,1.3,0.5,1.8,1.1c1.2,1.4,0.2,3.6-0.8,5.2
				c-6.3,9.4-13.3,18.2-21.1,26.4c-1,1.1-2.1,2.1-3.5,2.6c-2.3,0.7-4.8-0.6-6.6-2.3c-6-5.6-8.2-14.3-12.5-21c-3.4-5.3-4.8-4.7,2-6.9
				C898.2,754.3,903.9,752.7,909.5,751.2z"/>
			<path class="st7" d="M788,328.3c3-0.2,6.9,0.1,7.9,3c0.8,2.3-0.7,4.6-2.2,6.5c-4.8,6.1-9.8,12-15,17.7c-3.3,3.6-6.8,7.2-11.4,9.1
				c-3.8-6.9-20-20.4-13.4-28.8C759.9,328.3,779.7,328.9,788,328.3z"/>
			<path class="st7" d="M814.4,438.7c2.6-0.2,5.9,0,7,2.4c1.1,2.2-0.5,4.7-2.1,6.6c-5.4,6.4-11.6,12-18,17.5
				c-1.3,1.1-2.8,2.3-4.6,2.3c-3,0.1-4.9-3.1-6.1-5.9c-2.4-5.8-8.8-16.5-2.9-20.3C793.5,437.6,807.7,439.1,814.4,438.7z"/>
			<path class="st2" d="M789,417.3c-2.7-10.3-5.5-20.6-8.5-30.8c-16.2-53.7-42.9-118.7-93-148.1c-4.6-2.7-9.8-4.4-14.9-6.1
				c-35.9-11.7-72.9-9.6-107,8.4c-7.8,4.1-15.4,9-23.8,11.8c-9.2,3-19.1,3.2-28.7,4.2c-33.2,3.5-68.1,20-80.5,51
				c-1.9,4.8-3.3,10.4-1.3,15.2c3.1,7.5,12.3,9.9,20.3,11.4c41,7.5,82,15,123,22.5c-31.8,13.1-63.5,26.3-95.3,39.4
				c-4.4,1.8-9,3.8-12,7.5c-5.6,6.9-3.6,17.8,2.3,24.4c6,6.6,14.8,9.8,23.5,11.8c34,8.2,70.9,3.2,101.5-13.6
				c-23.5,73.7-40,149.6-49.5,226.4c-9.3,75.5-17.9,150.1,8.1,223.7c19,53.8,54.4,102.5,102.7,132.8
				c57.2,35.9,163.4,68.8,213.2,12.1c17.7-20.1,32.4-42.5,47.2-64.8c31.2-47.3,9.5-117.1-6.8-167.4
				c-24.7-76.2-47.5-153.9-73.4-229.7c-9.6-28-23.9-51.1-31.5-80.2C799.2,458.7,794.4,437.9,789,417.3z"/>
			<path class="st2" d="M787.7,494.3c25.1-14.8,55-21.7,76.6-41.2c12.8-11.6,22-27.8,26-44.5c4-16.2-1.5-33.1,3.4-48.8
				c3.4-10.7,7-21.4,10.9-31.9c3.5-9.3,7.6-19.1,15.7-25c8.1-5.9,21.3-5.6,26.4,2.9c2.5,4.3,2.5,9.5,3.6,14.4
				c1.1,4.9,4.1,10.1,9,10.6c2.9,0.3,5.9-1.1,8.8-0.6c4.7,0.9,7,6.5,6.2,11.2c-0.8,4.7-3.8,8.6-6.4,12.6
				c-16.7,26.6-13.6,62.3-24,91.3c-8.5,23.7-20,46.2-33.9,67.1c-14,21-30.5,40.4-49,57.6c-9.2,8.6-19,16.7-29.2,24.1
				c-7,5.1-21.6,18.8-30.3,19.5c-18.6,10.4-40,19.3-60.7,14C668.9,609.1,758.3,511.6,787.7,494.3z"/>
			<path class="st3" d="M453.2,299.4c-0.7,1.5-1.2,3.3-0.7,4.9c0.5,1.6,2.6,2.7,3.9,1.8c1-0.7,1.2-2.1,1.4-3.3
				c0.5-3,1.8-5.8,3.7-8.1c2.2-2.7,8.1-11,0.5-7.2C458.2,289.3,454.9,295.5,453.2,299.4z"/>
			<path class="st2" d="M916.3,952.4c28.4-76.2-61.7-100.8-119.2-79.7c-27.8,10.2-51.9,28.5-73.5,48.8c-28.3,26.5-53.3,57-69.5,92.2
				c-16.2,35.2-23.2,75.2-15.4,113.2c3.7,17.9,9,40.3-5.4,51.4c-6.5,5-15.2,5.8-23.2,7.5c-15.9,3.5-30.8,11.6-42.3,23.2
				c-7.3,7.4-13.3,19.7-6.4,27.5c3.4,3.8,8.7,5,13.7,6c34.4,6.8,68.8,13.6,103.2,20.4c10.8,2.1,22.8,4.1,32.1-1.7
				c7.5-4.7,11.5-13.3,15-21.5c15.8-36.6,27.2-74.1,32.3-113.7c1.8-13.8,3.5-28.9,13.3-38.8c4.9-4.9,11.3-7.9,17.6-10.8
				c23.5-10.9,49.6-19.8,70.3-35.5C887.4,1019.2,903.9,985.7,916.3,952.4z"/>
		</g>
		<g>
			<defs>
				<path id="SVGID_1_" d="M789,417.3c-2.7-10.3-5.5-20.6-8.5-30.8c-16.2-53.7-42.9-118.7-93-148.1c-4.6-2.7-9.8-4.4-14.9-6.1
					c-35.9-11.7-72.9-9.6-107,8.4c-7.8,4.1-15.4,9-23.8,11.8c-9.2,3-19.1,3.2-28.7,4.2c-33.2,3.5-68.1,20-80.5,51
					c-1.9,4.8-3.3,10.4-1.3,15.2c3.1,7.5,12.3,9.9,20.3,11.4c41,7.5,82,15,123,22.5c-31.8,13.1-63.5,26.3-95.3,39.4
					c-4.4,1.8-9,3.8-12,7.5c-5.6,6.9-3.6,17.8,2.3,24.4c6,6.6,14.8,9.8,23.5,11.8c34,8.2,70.9,3.2,101.5-13.6
					c-23.5,73.7-40,149.6-49.5,226.4c-9.3,75.5-17.9,150.1,8.1,223.7c19,53.8,54.4,102.5,102.7,132.8
					c42.1,26.4,108.2,52.4,155.4,26.6c54.5-29.8,95.1-92,106.1-152c11-60-8.1-105.3-32-158.3c-23.7-52.5-30.6-111.8-49.2-166.1
					c-9.6-28-23.9-51.1-31.5-80.2C799.1,458.7,794.3,437.9,789,417.3z"/>
			</defs>
			<clipPath id="SVGID_00000011025128806646028210000003974101372028268424_">
				<use xlink:href="#SVGID_1_"  style="overflow:visible;"/>
			</clipPath>
			<path style="clip-path:url(#SVGID_00000011025128806646028210000003974101372028268424_);fill:#EFF4F2;" d="M693.4,531.7
				c43.6,31.3,72.9,79.5,89.9,130.4c17.1,50.9,22.8,104.8,27,158.3c3.2,41.1,5.6,82.3,4.2,123.5c-1,30.4-4.2,61.1-14,90
				c-6.5,19.2-17,38.4-34.8,48c-27.9,15.1-62.2,1.7-90-13.4c-42.6-23.3-83.5-51.4-113.9-89.2c-62.7-78.1-24-197-20.2-297.1
				c2.3-59.9-38.4-112.3-2.5-162.4C571.6,474.2,656.4,505.1,693.4,531.7z"/>
		</g>
		<path class="st2" d="M917.8,951.9c28.4-76.2-61.7-100.8-119.2-79.7c-27.8,10.2-51.9,28.5-73.5,48.8c-28.3,26.5-53.3,57-69.5,92.2
			c-16.2,35.2-23.2,75.2-15.4,113.2c3.7,17.9,9,40.3-5.4,51.4c-6.5,5-15.2,5.8-23.2,7.5c-15.9,3.5-30.8,11.6-42.3,23.2
			c-7.3,7.4-13.3,19.7-6.4,27.5c3.4,3.8,8.7,5,13.7,6c34.4,6.8,68.8,13.6,103.2,20.4c10.8,2.1,22.8,4.1,32.1-1.7
			c7.5-4.7,11.5-13.3,15-21.5c15.8-36.6,27.2-74.1,32.3-113.7c1.8-13.8,3.5-28.9,13.3-38.8c4.9-4.9,11.3-7.9,17.6-10.8
			c23.5-10.9,49.6-19.8,70.3-35.5C888.9,1018.7,905.4,985.2,917.8,951.9z"/>
		<path class="st9" d="M575.4,628.8c13.3,6.8,35.2,15.7,63.4,18.1c40.1,3.3,71.2-8.5,86.1-15.4"/>
		<path class="st9" d="M567.1,713.3c13.4,6.9,30.2,13.7,50.2,17.7c63.4,12.8,116.1-10.4,137.2-21.3"/>
		<path class="st9" d="M570.6,808.5c19.9,5.8,47.6,11.5,80.7,11.3c46.1-0.2,82.8-11.8,105.5-21"/>
		<path class="st9" d="M594.2,891c9.8,4.4,27.8,11,51.1,10.3c31-0.8,53.2-14,62.3-20.2"/>
	</g>
	<path class="st2" d="M573.8,499.4l-11.2-7.3l17.1-48.6c0,0-39.6,18.8-84.9,7.6S451.7,414,451.7,414l15.6-10.2l49.8,20.1l81-19.2
		l16.7,24.8l-21.3,59.7L573.8,499.4z"/>
	<g>
		<path class="st10" d="M991.6,868.3c2.1,0.9,4.2,2.4,5.3,4.6c1.7,3.2,0.6,6.6-0.5,9.5c-4.2,10.6-10.6,31.9-20.2,37.9
			c-7.7,4.8-24.3-8.4-29.1-18.6c-6.6-13.7,3.2-18.4,12.1-23.6C967.8,873.2,979.5,863.1,991.6,868.3z"/>
		<path class="st10" d="M1087.3,931.3c6.4-3.4,15.5-2.8,19.6,3.2c1.9,2.8,2.4,6.2,2.8,9.5c1,7.8,1.6,15.7,1.7,23.6
			c0,2.6-0.4,5.7-2.8,6.6c-1.1,0.4-2.3,0.1-3.5-0.1c-9.1-2-32.2-2.9-37.2-12.4C1062.6,951.2,1080.5,936.8,1087.3,931.3z"/>
		<path class="st10" d="M1189.6,949.7c1.1-6.2,1.4-17.1,5.5-21.8c1-1.1,2.2-2.2,3.6-2.6c2-0.6,4-1.3,5.7-0.1c4.3,3,5.9,6.3,7.7,8.9
			c5.6,7.7,13.3,19.9,18,28.2c0.6,1.1,1.2,2.4,0.8,3.6c-0.3,0.9-1.3,1.5-2.1,2c-8.7,4.9-23.8,12.5-34.1,11.1
			C1182.2,977.4,1188.2,958.2,1189.6,949.7z"/>
		<path class="st11" d="M1304.2,948.7c0.7-2.4-0.9-5.7-1.8-8.1c-2.1-5.1-9.2-5.2-14.5-3.8c-13.8,3.6-28,9.8-40.7,16.1
			c-78.9,38.7-173.9,21.6-250-22.4c-29.4-17-58.3-39.7-68.4-72.1c-2.1-6.8-5.9-29-10.4-41c-8.5,1.7-10.2,24.2-18.3,27.1
			c-32.5,11.4-62.4,31.8-82.1,60.4c-8.8,12.9-15,26.9-18.4,41.6c22.5,20.8,19.9,43.9,45.9,60.1c56,34.8,149,47,214.8,44.6
			c65.8-2.4,130.5-22,189-52.3C1271.5,987.2,1296.8,972.6,1304.2,948.7z"/>
	</g>
	<path class="st12" d="M607.7,297c1.3,5.5,5.6,10.9,11.9,11.5c3.9,0.4,7.9-1.2,10.8-3.6c2.9-2.4,4.8-5.6,6.4-8.8
		c4-8.3,6.3-32.7-11.4-28.8C612.4,270.1,605.3,286.8,607.7,297z"/>
	<path class="st13" d="M607.1,297c0.9,3.7,4.1,7.4,8.7,7.8c2.9,0.3,5.8-0.8,7.9-2.5c2.1-1.7,3.6-3.8,4.7-6c3-5.6,4.7-22.3-8.3-19.6
		C610.6,278.7,605.4,290.1,607.1,297z"/>
</g>
</svg>
